<svg width="1169" height="107" viewBox="0 0 1169 107" fill="none" xmlns="http://www.w3.org/2000/svg">
<path d="M21.25 107C15.2734 107 10.2376 104.952 6.14258 100.857C2.04753 96.6517 0 91.6159 0 85.75H127.5C127.5 91.7266 125.397 96.7624 121.191 100.857C116.986 104.952 112.005 107 106.25 107H21.25ZM21.25 64.5C15.2734 64.5 10.2376 62.4525 6.14258 58.3574C2.04753 54.1517 0 49.1159 0 43.25H127.5C127.5 49.2266 125.397 54.2624 121.191 58.3574C116.986 62.4525 112.005 64.5 106.25 64.5H21.25ZM21.25 22C15.2734 22 10.2376 19.9525 6.14258 15.8574C2.04753 11.6517 0 6.61589 0 0.75H127.5C127.5 6.72656 125.397 11.7624 121.191 15.8574C116.986 19.9525 112.005 22 106.25 22H21.25ZM148.75 107V0.75H170V85.75H276.25C276.25 91.7266 274.147 96.7624 269.941 100.857C265.736 104.952 260.755 107 255 107H148.75ZM318.75 107C312.773 107 307.738 104.952 303.643 100.857C299.548 96.6517 297.5 91.6159 297.5 85.75H425C425 91.7266 422.897 96.7624 418.691 100.857C414.486 104.952 409.505 107 403.75 107H318.75ZM318.75 64.5C312.773 64.5 307.738 62.4525 303.643 58.3574C299.548 54.1517 297.5 49.1159 297.5 43.25H425C425 49.2266 422.897 54.2624 418.691 58.3574C414.486 62.4525 409.505 64.5 403.75 64.5H318.75ZM318.75 22C312.773 22 307.738 19.9525 303.643 15.8574C299.548 11.6517 297.5 6.61589 297.5 0.75H425C425 6.72656 422.897 11.7624 418.691 15.8574C414.486 19.9525 409.505 22 403.75 22H318.75ZM446.25 107V0.75H467.5V107H446.25ZM541.875 107L488.75 53.875L541.875 0.75H573.75L531.25 43.25H531.084L520.625 53.875L573.75 107H541.875ZM648.125 107V22H616.25C610.273 22 605.238 19.9525 601.143 15.8574C597.048 11.6517 595 6.61589 595 0.75H722.5C722.5 6.72656 720.397 11.7624 716.191 15.8574C711.986 19.9525 707.005 22 701.25 22H669.375V107H648.125ZM743.75 107V43.25H839.375C842.253 43.25 844.743 42.2539 846.846 40.2617C848.949 38.1589 850 35.6133 850 32.625V22H765C759.023 22 753.988 19.9525 749.893 15.8574C745.798 11.6517 743.75 6.61589 743.75 0.75H871.25V43.25C871.25 49.2266 869.147 54.2624 864.941 58.3574C860.736 62.4525 855.755 64.5 850 64.5H828.75L871.25 107H839.375L796.875 64.5H765V107H743.75ZM892.5 107V43.25H913.75V85.75H998.75V43.25H1020V107H892.5ZM913.75 22C907.773 22 902.738 19.9525 898.643 15.8574C894.548 11.6517 892.5 6.61589 892.5 0.75H1020C1020 6.72656 1017.9 11.7624 1013.69 15.8574C1009.49 19.9525 1004.51 22 998.75 22H913.75ZM1062.5 107V22L1041.25 0.75H1073.12L1147.5 75.125V0.75H1168.75V107H1147.5L1083.75 43.25V107H1062.5Z" fill="black"/>
</svg>
